<svg viewBox="0 0 128 32" xmlns="http://www.w3.org/2000/svg">
	<g>
		<path
			d="M42.0679 0C33.1768 0 27.9922 7.0275 27.9922 15.919C27.9922 24.8104 33.2222 32 42.0679 32C50.9135 32 56.1435 24.7988 56.1435 15.919C56.1435 7.03907 50.9476 0 42.0679 0ZM42.0679 27.5195C35.9851 27.5195 32.4491 22.3907 32.4491 15.9421C32.4491 9.49349 35.9851 4.36469 42.0679 4.36469C48.1506 4.36469 51.698 9.49349 51.698 15.9421C51.698 22.3907 48.1393 27.5195 42.0679 27.5195Z"
			fill="currentColor"
		/>
		<path
			d="M127.409 27.3806H109.32V26.8828C110.14 26.674 110.87 26.1956 111.396 25.5216C111.922 24.8476 112.215 24.0157 112.23 23.1548V1.15774L111.639 0.532561H108.706L108.114 1.15774V31.259L108.706 31.8726H127.409L128 31.259V27.9826L127.409 27.3806Z"
			fill="currentColor"
		/>
		<path
			d="M103.953 4.95509L104.601 4.35307V1.1577L103.953 0.532516H85.2727L84.6928 1.1577V31.259L85.2841 31.8726H103.953L104.556 31.259V27.9826L103.953 27.3806H88.82V21.1403C88.8115 20.2621 88.513 19.4123 87.9727 18.7277C87.4324 18.0431 86.6816 17.5635 85.8412 17.3661V16.8798H103.271V15.4905H88.82V4.95509H103.953Z"
			fill="currentColor"
		/>
		<path
			d="M71.5268 31.1895L81.9642 1.13454L81.3729 0.532516H78.2122L77.6209 1.13454L69.5144 24.5094H68.6503L60.5323 1.13454L59.9411 0.532516H56.7917L56.1891 1.13454L66.6264 31.1895L67.2177 31.7916H70.9356L71.5268 31.1895Z"
			fill="currentColor"
		/>
		<path
			d="M21.2954 0.532516L20.7042 1.13454V30.6338H19.9765L6.16237 1.13454L5.57115 0.532516H0.591224L0 1.13454V31.1895L0.591224 31.7916H3.752L4.34322 31.1895V1.70184H5.05951L18.8737 31.2011L19.4535 31.7916H24.4448L25.0361 31.1895V1.13454L24.4448 0.532516H21.2954Z"
			fill="currentColor"
		/>
	</g>
</svg>
