<svg viewBox="0 0 189 30" xmlns="http://www.w3.org/2000/svg">
	<g>
		<g>
			<g>
				<path d="M148 8.61h4.864v20.983H148z" />
			</g>
			<g>
				<path
					d="M129.151 11.664V.41h-4.911v29.182h4.911V18.788c0-3.298 1.287-5.99 4.849-5.99 3.792 0 4.718 3.095 4.718 5.828V29.6h4.911V17.936c-.007-5.87-3.103-9.73-8.167-9.73-3.376 0-5.225 1.609-6.31 3.458z"
				/>
			</g>
			<g><path d="M148 .41h4.864v4.663H148z" /></g>
			<g>
				<path
					d="M175.577 3.15l-4.91 1.72v3.737h-6.987c0-3.016 1.473-4.02 3.32-4.02.593.003 1.17.07 1.734.201V.246a11.401 11.401 0 0 0-2.33-.246c-3.861 0-7.638 2.814-7.638 8.595h-3.246v4.665h3.256v16.32h4.911V13.275h6.994v7.31c0 5.466 3.659 9.415 8.884 9.415a12.99 12.99 0 0 0 3.738-.53v-4.666c-1 .388-2.063.592-3.136.602-3.167.007-4.59-2.002-4.59-5.096z"
				/>
			</g>
			<g>
				<path
					d="M117.528 15.339l3.538-3.1c-1.488-1.888-3.98-4.019-8.722-4.019-5.024 0-8.28 2.947-8.28 6.674 0 4.823 4.26 5.547 7.315 6.106 2.772.556 4.783.797 4.783 2.445 0 1.166-.965 2.29-3.457 2.29-2.33 0-4.26-1.325-5.586-3.295l-3.539 3.06c1.42 2.21 4.543 4.5 9.125 4.5 5.908 0 8.361-3.454 8.361-6.71 0-4.985-4.38-5.788-7.838-6.473-2.333-.442-4.228-.602-4.228-2.168 0-1.21 1.132-2.164 3.344-2.164a5.96 5.96 0 0 1 5.184 2.854z"
				/>
			</g>
			<g><path d="M178.39 8.61h4.904v4.663h-4.904z" /></g>
			<g>
				<path
					d="M91.483 8.21c6.913 0 10.851 5.79 9.928 12.499H85.813c.562 2.934 2.613 4.702 5.95 4.702 2.532 0 4.14-1.092 5.304-2.811l3.497 3.055C98.678 28.427 95.542 30 91.763 30 85.29 30 80.87 25.33 80.87 19.103S85.172 8.21 91.483 8.21zM85.936 17h10.41c-.443-2.482-2.012-4.37-4.863-4.37-3.217 0-4.943 1.888-5.547 4.37z"
				/>
			</g>
			<g><path d="M8.12.41v29.182H13V5.073h8.142V.41z" /></g>
			<g><path d="M0 .41h4.904v4.663H0z" /></g>
			<g>
				<path
					d="M24 8.609h-4.92v20.983H24V18.579c0-3.298 1.359-5.668 4.694-5.668.689.01 1.37.145 2.01.4V8.646a6.54 6.54 0 0 0-1.809-.246c-2.45.007-4.052 1.817-4.895 3.546z"
				/>
			</g>
			<g>
				<path
					d="M48 8.61h4.901v20.983H48v-3.057C46.664 28.75 44.415 30 41.24 30c-5.346 0-9.97-4.463-9.97-10.897S35.894 8.21 41.24 8.21c3.175 0 5.424 1.245 6.76 3.455zm-5.758 16.801c3.758 0 5.991-2.61 5.991-6.308S46 12.792 42.242 12.792c-3.735 0-5.987 2.613-5.987 6.31 0 3.699 2.252 6.31 5.987 6.31z"
				/>
			</g>
			<g>
				<path
					d="M72.793.41h4.91v29.182h-4.91v-3.057C71.467 28.748 69.215 30 66 30c-5.309 0-9.93-4.464-9.93-10.898 0-6.434 4.621-10.893 9.93-10.893 3.215 0 5.467 1.245 6.793 3.455zM67 25.41c3.784 0 6-2.61 6-6.308s-2.219-6.31-6-6.31c-3.693 0-5.943 2.612-5.943 6.31 0 3.698 2.25 6.309 5.943 6.309z"
				/>
			</g>
			<g>
				<path
					d="M185.802 5c-1.386 0-2.51-1.091-2.512-2.477A2.518 2.518 0 0 1 185.797 0c.652 0 1.283.24 1.754.69.449.451.744 1.07.758 1.722v.106C188.311 3.904 187.19 5 185.802 5zm-.025-4.415a1.964 1.964 0 1 0 1.98 1.997v-.064a1.964 1.964 0 0 0-1.98-1.933zm1.113 3.15h-.626l-.457-.846h-.31v.847H185V1.234h.895c.592 0 .921.336.921.827a.776.776 0 0 1-.466.742zm-.99-1.345c.263 0 .376-.14.376-.329s-.113-.317-.376-.317h-.402v.646z"
				/>
			</g>
		</g>
	</g>
</svg>
